<svg width="42" height="43" viewBox="0 0 42 43" fill="none" xmlns="http://www.w3.org/2000/svg">
<g clip-path="url(#clip0_3_40943)">
<circle cx="20.8889" cy="21.5" r="20.8889" fill="#4640DE"/>
<mask id="path-2-inside-1_3_40943" fill="white">
<path d="M20.8889 35.861C24.3685 35.861 27.8481 33.1132 30.1071 30.8725C30.6282 30.3556 30.0007 29.6103 29.3518 29.9533C26.8962 31.2511 23.5236 32.7277 20.8889 32.7277C18.2542 32.7277 14.8816 31.2511 12.426 29.9533C11.7771 29.6103 11.1496 30.3556 11.6707 30.8725C13.9297 33.1132 17.4093 35.861 20.8889 35.861Z"/>
</mask>
<path d="M30.1071 30.8725L27.3489 28.0918L27.3489 28.0918L30.1071 30.8725ZM11.6707 30.8725L14.429 28.0918V28.0918L11.6707 30.8725ZM12.426 29.9533L10.5958 33.416H10.5958L12.426 29.9533ZM29.3518 29.9533L31.182 33.416V33.416L29.3518 29.9533ZM27.3489 28.0918C26.3439 29.0887 25.1518 30.1105 23.9179 30.8623C22.6503 31.6346 21.6294 31.9444 20.8889 31.9444V39.7777C23.628 39.7777 26.0867 38.7136 27.9936 37.5518C29.9341 36.3695 31.6113 34.8971 32.8653 33.6532L27.3489 28.0918ZM20.8889 31.9444C20.1484 31.9444 19.1275 31.6346 17.86 30.8623C16.626 30.1105 15.434 29.0887 14.429 28.0918L8.91251 33.6532C10.1665 34.8971 11.8437 36.3695 13.7843 37.5518C15.6911 38.7136 18.1498 39.7777 20.8889 39.7777V31.9444ZM10.5958 33.416C11.9216 34.1167 13.5552 34.8987 15.2664 35.5133C16.9291 36.1105 18.9202 36.6444 20.8889 36.6444V28.811C20.2229 28.811 19.2104 28.6066 17.9143 28.1411C16.6665 27.6929 15.3861 27.0877 14.2563 26.4905L10.5958 33.416ZM20.8889 36.6444C22.8576 36.6444 24.8487 36.1105 26.5115 35.5133C28.2226 34.8987 29.8563 34.1167 31.182 33.416L27.5216 26.4905C26.3917 27.0877 25.1113 27.6929 23.8636 28.1411C22.5674 28.6066 21.5549 28.811 20.8889 28.811V36.6444ZM32.8653 33.6532C33.6408 32.884 34.1763 31.8132 34.2149 30.5856C34.252 29.4052 33.8204 28.3575 33.181 27.5877C31.8705 26.0102 29.5475 25.4197 27.5216 26.4905L31.182 33.416C29.805 34.1438 28.1202 33.7545 27.1555 32.5932C26.6889 32.0315 26.357 31.2456 26.3854 30.3395C26.4154 29.3864 26.8339 28.6025 27.3489 28.0918L32.8653 33.6532ZM14.429 28.0918C14.9439 28.6026 15.3624 29.3864 15.3924 30.3395C15.4209 31.2456 15.089 32.0315 14.6224 32.5932C13.6576 33.7545 11.9729 34.1438 10.5958 33.416L14.2563 26.4905C12.2303 25.4197 9.90736 26.0102 8.59689 27.5877C7.95744 28.3575 7.52582 29.4051 7.56293 30.5856C7.60151 31.8132 8.13701 32.884 8.91251 33.6532L14.429 28.0918Z" fill="white" mask="url(#path-2-inside-1_3_40943)"/>
<path d="M28.346 12.7737C27.9283 12.3532 27.9283 11.6791 28.346 11.2585L30.5895 8.47915L30.5895 8.4309C31.1579 7.8686 32.0793 7.8686 32.6477 8.4309C33.216 8.9932 33.216 9.90488 32.6477 10.4672L30.0042 12.7737L29.9055 12.8612C29.6991 13.0242 29.4418 13.1143 29.1751 13.1143C28.864 13.1143 28.5656 12.9917 28.346 12.7737ZM11.3147 20.4363C11.3147 17.9612 12.3085 15.5876 14.0774 13.8374C15.8464 12.0873 18.2456 11.1041 20.7473 11.1041C25.9567 11.1041 30.1798 15.2823 30.1798 20.4363C30.1798 25.5903 25.9567 29.7684 20.7473 29.7684C15.5378 29.7684 11.3147 25.5903 11.3147 20.4363Z" fill="white"/>
</g>
<defs>
<clipPath id="clip0_3_40943">
<rect width="41.7778" height="41.7778" fill="white" transform="translate(0 0.611084)"/>
</clipPath>
</defs>
</svg>
