<svg width="35" height="35" viewBox="0 0 35 35" fill="none" xmlns="http://www.w3.org/2000/svg">
<path d="M32.5939 17.8522C32.5939 16.811 32.5086 15.7653 32.3292 14.7416H17.8042V20.6369H26.1211C25.9495 21.5803 25.5882 22.4791 25.0592 23.2789C24.5302 24.0786 23.8444 24.7627 23.0433 25.2897V29.1178H28.0067C30.9205 26.4491 32.5939 22.5116 32.5939 17.8522Z" fill="#4285F4"/>
<path d="M17.8063 32.8125C21.9581 32.8125 25.4603 31.4563 28.0109 29.1157L23.0497 25.2897C21.6694 26.2238 19.8866 26.7532 17.8106 26.7532C13.7944 26.7532 10.3884 24.0582 9.16563 20.4357H4.04688V24.3797C5.33662 26.9199 7.30534 29.0528 9.73431 30.5415C12.1633 32.0301 14.9574 32.8163 17.8063 32.8125Z" fill="#34A853"/>
<path d="M9.15927 20.4356C8.5142 18.5347 8.5142 16.474 9.15927 14.5731V10.629H4.04489C2.96786 12.7609 2.40674 15.1159 2.40674 17.5043C2.40674 19.8928 2.96786 22.2478 4.04489 24.3797L9.15927 20.4356Z" fill="#FBBC04"/>
<path d="M17.8063 8.24682C19.9995 8.21126 22.1195 9.03572 23.7125 10.5437L28.1094 6.17088C25.315 3.56789 21.6249 2.142 17.8063 2.18963C14.9566 2.18602 12.1618 2.97293 9.73269 4.46285C7.30356 5.95276 5.33532 8.08728 4.04688 10.629L9.15688 14.5687C10.3731 10.9418 13.7856 8.24682 17.8019 8.24682H17.8063Z" fill="#EA4335"/>
</svg>
